<?xml version="1.0" encoding="utf-8"?>
<!-- Generator: Adobe Illustrator 25.2.3, SVG Export Plug-In . SVG Version: 6.00 Build 0)  -->
<!DOCTYPE svg PUBLIC "-//W3C//DTD SVG 1.1//EN" "http://www.w3.org/Graphics/SVG/1.1/DTD/svg11.dtd" [
	<!ENTITY ns_extend "http://ns.adobe.com/Extensibility/1.0/">
	<!ENTITY ns_ai "http://ns.adobe.com/AdobeIllustrator/10.0/">
	<!ENTITY ns_graphs "http://ns.adobe.com/Graphs/1.0/">
	<!ENTITY ns_vars "http://ns.adobe.com/Variables/1.0/">
	<!ENTITY ns_imrep "http://ns.adobe.com/ImageReplacement/1.0/">
	<!ENTITY ns_sfw "http://ns.adobe.com/SaveForWeb/1.0/">
	<!ENTITY ns_custom "http://ns.adobe.com/GenericCustomNamespace/1.0/">
	<!ENTITY ns_adobe_xpath "http://ns.adobe.com/XPath/1.0/">
]>
<svg version="1.1" id="Capa_1" xmlns:x="&ns_extend;" xmlns:i="&ns_ai;" xmlns:graph="&ns_graphs;"
	 xmlns="http://www.w3.org/2000/svg" xmlns:xlink="http://www.w3.org/1999/xlink" x="0px" y="0px" viewBox="0 0 141.3 48.6"
	 style="enable-background:new 0 0 141.3 48.6;" xml:space="preserve">
<style type="text/css">
	.st0{fill:#7BD100;}
	.st1{fill:#48484C;}
</style>
<metadata>
	<sfw  xmlns="&ns_sfw;">
		<slices></slices>
		<sliceSourceBounds  bottomLeftOrigin="true" height="45.9" width="138" x="1.6" y="1.4"></sliceSourceBounds>
	</sfw>
</metadata>
<g>
	<g id="Grupo_224-2" transform="translate(1008.596 -398.492)">
		<g id="Grupo_223-2">
			<path id="Trazado_237-2_1_" class="st0" d="M-994.1,399.9h-0.7c-6.2,0-9.4,2.4-9.9,3.3c-0.9,1.9,0.7,3.4,2,3.4c1.5,0,3-2,7.2-2
				h2.6c3,0,4.2,0.5,5.2,1.6c0.8,0.8,1.2,2,1.2,3.8v0.5h-10.7c-3.5,0-6.1,0.8-7.7,2.4c-1.3,1.3-1.9,3.1-1.9,5.3v0.8
				c0,2,0.8,4,2.3,5.3c1.8,1.8,4.8,2.7,8.8,2.7h1c5.6,0,7.7-0.8,9.9-2.4c1.9-1.5,2.9-3.6,2.9-6.6v-7.7c0-3.3-0.8-5.8-2.6-7.6
				C-986.7,400.7-989.9,399.9-994.1,399.9z M-986.7,417.5c0,1.7-0.4,2.7-1.3,3.4c-1.2,1-4.1,1.2-7.1,1.2h-1.5c-2.4,0-4.1-0.5-5-1.2
				c-0.6-0.6-1-1.4-0.9-2.2V418c0-0.7,0.2-1.5,0.7-2c0.7-0.7,1.8-1,3.8-1h11.3V417.5z"/>
			<path id="Trazado_238-2_1_" class="st0" d="M-958.2,420.8c-1.9,1.1-4.1,1.8-6.3,1.8h-0.9c-2.9-0.2-5.3-1.3-6.5-3
				c-1.2-1.6-1.4-3.2-1.5-5.1v-2.2c0.1-1.8,0.3-3.5,1.5-5.1c1.2-1.7,3.6-2.8,6.5-3h0.9c2.2,0,4.4,0.6,6.3,1.8c1.8,1,3.8-0.2,3.8-1.8
				c0-0.6-0.2-1.1-0.6-1.5c-2.6-2.1-5.7-2.8-9.5-2.8h-1.3c-4.2,0.3-7.8,2-9.9,4.7c-2.3,3-2.4,6-2.4,8.8v0c0,2.8,0.1,5.8,2.4,8.8
				c2,2.7,5.6,4.4,9.9,4.7h1.3c3.8,0,6.9-0.8,9.5-2.8c0.4-0.4,0.6-0.9,0.6-1.5C-954.4,421-956.4,419.7-958.2,420.8z"/>
			<path id="Trazado_239-2_1_" class="st0" d="M-928.6,402.5c-2-1.8-5.2-2.6-9.3-2.6h-0.8c-4.5,0-7.7,0.9-9.8,3.1
				c-1.6,1.8-2.3,4.1-2.3,7.3v6.2c0,3.4,0.8,5.9,2.5,7.6c1.8,1.9,4.8,2.9,8.9,2.9c0,0,1.2,0,1.2,0c5.3,0,9.9-1.4,11.7-3.8
				c0.6-0.9,0.5-3.1-0.9-3.6c-3.1-1-2.9,2.5-10.4,2.5h-1.1c-2.2,0-4.9-0.2-6.1-1.5c-0.8-0.8-1.2-2.1-1.2-4.2V415h18.5
				c1.5,0,1.9-0.5,1.9-2v-2.9C-925.8,406.7-926.7,404.2-928.6,402.5z M-930.3,410.4h-15.9v-0.3c0-1.7,0.4-3,1.1-3.9
				c1.2-1.6,4.1-1.7,7.2-1.7c2.3,0,5.1,0.2,6.4,1.5c0.8,0.7,1.2,2.1,1.2,4L-930.3,410.4z"/>
			<path id="Trazado_240-2_1_" class="st0" d="M-871.1,413c-1.4-1.1-3.6-1.9-6.5-1.9l-3.2-0.2c0,0-2.4-0.1-3.1-0.2
				c-1.2-0.1-2.1-0.3-2.8-0.8c-0.5-0.5-0.7-1.2-0.7-1.8c0.1-1.3,0.6-1.8,1.3-2.4c1.2-0.9,7.6-2.1,11.4,0.6c1.7,1.3,3.7,0.2,3.9-0.9
				c0.7-2.7-3.4-4.7-6.7-5.1c-1.1-0.2-9.2-1.2-12.8,2.7c-1.4,1.4-2.1,3.2-2.2,5.2c-0.1,2.5,0.6,4.2,2,5.4c1.4,1.2,3.5,1.8,6.2,1.9
				c1.6,0.1,4.7,0.3,6.3,0.4c1.4,0.1,2.4,0.3,3,0.7c0.8,0.6,0.9,1.4,0.9,2.3c0,1.2-0.5,1.9-1.4,2.5c-1.5,1-9.7,2.2-12.2-1
				c-1.4-1.8-3.6-1.3-4.2,0.1c-0.4,1-0.3,2.1,0.3,3c1.7,2.2,4.7,3.5,9.4,3.6h0.9c4.9,0,7.6-0.9,9.8-2.9c1.5-1.3,2.2-3.1,2.3-5.3
				C-868.9,416-869.6,414.3-871.1,413z"/>
			<path id="Trazado_241-2_1_" class="st0" d="M-899.3,402.5c-2-1.8-5.2-2.6-9.3-2.6h-0.8c-4.5,0-7.7,0.9-9.8,3.1
				c-1.6,1.8-2.3,4.1-2.3,7.3v14.3c0,2,0.9,2.2,2.4,2.2c1.2,0,2.2-0.4,2.2-2.2v-12.3l0-2.2c0-1.7,0.4-3,1.1-3.9
				c1.2-1.6,4.1-1.7,7.2-1.7c2.3,0,5,0.2,6.3,1.5c0.8,0.7,1.2,2.1,1.2,4v14.6c0,1.8,0.9,2.2,2.2,2.2c1.5,0,2.4-0.3,2.4-2.2v-14.5
				C-896.5,406.7-897.4,404.2-899.3,402.5z"/>
		</g>
	</g>
	<g id="Grupo_58" transform="translate(1935.156 244.884)">
		<g id="Grupo_57_3_">
			<path id="Trazado_30_3_" class="st1" d="M-1919.7-197.7v-7.6h3.5c0.4,0,0.9,0.1,1.2,0.3c0.4,0.2,0.7,0.5,0.9,0.9
				c0.4,0.8,0.4,1.8,0,2.7c-0.2,0.4-0.5,0.7-0.9,0.9c-0.4,0.2-0.8,0.3-1.2,0.3h-2v2.5L-1919.7-197.7z M-1916.3-201.6
				c0.3,0,0.5-0.1,0.7-0.3c0.4-0.5,0.4-1.2,0-1.7c-0.2-0.2-0.4-0.3-0.7-0.3h-1.9v2.3H-1916.3z"/>
			<path id="Trazado_31_3_" class="st1" d="M-1912.5-197.8c-0.3-0.1-0.5-0.3-0.7-0.6c-0.2-0.3-0.2-0.6-0.2-0.9c0-0.5,0.2-1,0.5-1.3
				c0.5-0.4,1.1-0.5,1.7-0.5h1.3v-0.1c0-0.5-0.4-1-0.9-1c0,0-0.1,0-0.1,0c-0.2,0-0.5,0.1-0.7,0.2c-0.2,0.1-0.3,0.3-0.3,0.4h-1.3
				c0-0.3,0.1-0.6,0.3-0.9c0.2-0.3,0.5-0.5,0.8-0.7c0.4-0.2,0.8-0.3,1.2-0.3c0.4,0,0.9,0.1,1.3,0.3c0.3,0.2,0.6,0.4,0.8,0.8
				c0.2,0.3,0.3,0.7,0.3,1.1v3.5h-1.2l-0.1-0.5h-0.1c-0.2,0.2-0.4,0.3-0.6,0.4c-0.3,0.1-0.6,0.2-1,0.2
				C-1911.8-197.6-1912.1-197.7-1912.5-197.8z M-1910.2-199.1c0.2-0.2,0.4-0.6,0.3-0.9v-0.2h-1.2c-0.3,0-0.5,0-0.8,0.2
				c-0.3,0.2-0.3,0.7-0.1,1c0,0,0,0,0.1,0.1c0.2,0.1,0.4,0.2,0.6,0.2C-1910.8-198.7-1910.5-198.8-1910.2-199.1z"/>
			<path id="Trazado_32_3_" class="st1" d="M-1907.1-197.7v-5.5h1.2l0.1,0.5h0c0.1-0.1,0.2-0.3,0.4-0.3c0.2-0.1,0.4-0.1,0.6-0.1h1
				v1.3h-0.9c-0.5-0.1-1,0.3-1.1,0.8c0,0.1,0,0.2,0,0.3v3.1L-1907.1-197.7z"/>
			<path id="Trazado_33_3_" class="st1" d="M-1901.1-197.7c-0.4,0-0.8-0.1-1-0.3c-0.3-0.3-0.4-0.6-0.4-1v-2.9h-0.9v-1.3h0.9v-1.6
				h1.4v1.6h1.3v1.3h-1.3v2.6c0,0.2,0.1,0.3,0.2,0.4c0,0,0.1,0,0.1,0h0.9v1.2H-1901.1z"/>
			<path id="Trazado_34_3_" class="st1" d="M-1895.2-198c-0.4-0.2-0.8-0.6-1-1c-0.2-0.4-0.4-1-0.4-1.5c0-0.5,0.1-1,0.4-1.5
				c0.2-0.4,0.6-0.8,1-1c0.4-0.2,0.9-0.4,1.4-0.4c0.5,0,1,0.1,1.4,0.4c0.4,0.2,0.8,0.6,1,1c0.2,0.5,0.4,1,0.4,1.5
				c0,0.5-0.1,1-0.4,1.5c-0.2,0.4-0.6,0.8-1,1c-0.4,0.2-0.9,0.4-1.4,0.4C-1894.3-197.6-1894.8-197.7-1895.2-198z M-1893-199.1
				c0.2-0.1,0.4-0.3,0.5-0.5c0.1-0.3,0.2-0.5,0.2-0.8c0-0.3-0.1-0.6-0.2-0.8c-0.1-0.2-0.3-0.4-0.5-0.5c-0.2-0.1-0.5-0.2-0.7-0.2
				c-0.3,0-0.5,0.1-0.7,0.2c-0.2,0.1-0.4,0.3-0.5,0.5c-0.1,0.3-0.2,0.5-0.2,0.8c0,0.3,0.1,0.6,0.2,0.8c0.1,0.2,0.3,0.4,0.5,0.5
				c0.2,0.1,0.5,0.2,0.7,0.2C-1893.5-198.9-1893.2-199-1893-199.1L-1893-199.1z"/>
			<path id="Trazado_35_3_" class="st1" d="M-1889.7-197.7v-4.2h-0.9v-1.3h0.9v-0.9c0-0.4,0.1-0.7,0.4-1c0.3-0.3,0.6-0.4,1-0.4h1.2
				v1.2h-0.8c-0.1,0-0.2,0-0.3,0.1c-0.1,0.1-0.1,0.2-0.1,0.3v0.7h1.2v1.3h-1.2v4.2H-1889.7z"/>
			<path id="Trazado_36_3_" class="st1" d="M-1881.1-197.7h-1.5v-6.2h-2.2v-1.4h5.9v1.4h-2.2V-197.7z"/>
			<path id="Trazado_37_3_" class="st1" d="M-1878-198c-0.4-0.2-0.8-0.6-1-1c-0.2-0.4-0.4-1-0.4-1.5c0-0.5,0.1-1,0.4-1.5
				c0.2-0.4,0.6-0.8,1-1c0.4-0.2,0.9-0.4,1.4-0.4c0.5,0,1,0.1,1.4,0.4c0.4,0.2,0.7,0.6,1,1c0.2,0.4,0.4,0.9,0.4,1.4
				c0,0.2,0,0.4-0.1,0.5h-4.1c0,0.4,0.2,0.7,0.5,0.9c0.3,0.2,0.6,0.4,1,0.4c0.2,0,0.5-0.1,0.7-0.2c0.2-0.1,0.3-0.2,0.5-0.4h1.4
				c-0.2,0.6-0.7,1.2-1.3,1.5c-0.4,0.2-0.8,0.3-1.2,0.3C-1877.1-197.6-1877.6-197.8-1878-198z M-1875.2-201c0-0.3-0.2-0.7-0.4-0.9
				c-0.3-0.2-0.6-0.4-0.9-0.4c-0.4,0-0.7,0.1-1,0.4c-0.3,0.2-0.4,0.6-0.5,0.9H-1875.2z"/>
			<path id="Trazado_38_3_" class="st1" d="M-1871.7-197.7h-1.4v-7.6h1.4V-197.7z"/>
			<path id="Trazado_39_3_" class="st1" d="M-1869.5-198c-0.4-0.2-0.8-0.6-1-1c-0.2-0.4-0.4-1-0.4-1.5c0-0.5,0.1-1,0.4-1.5
				c0.2-0.4,0.6-0.8,1-1c0.4-0.2,0.9-0.4,1.4-0.4c0.5,0,1,0.1,1.4,0.4c0.4,0.2,0.8,0.6,1,1c0.2,0.4,0.4,0.9,0.4,1.4
				c0,0.2,0,0.4-0.1,0.5h-4.1c0,0.4,0.2,0.7,0.5,0.9c0.3,0.2,0.6,0.4,1,0.4c0.2,0,0.5-0.1,0.7-0.2c0.2-0.1,0.3-0.2,0.5-0.4h1.4
				c-0.2,0.6-0.7,1.2-1.3,1.5C-1867.6-197.5-1868.6-197.6-1869.5-198L-1869.5-198z M-1866.7-201c0-0.3-0.2-0.7-0.4-0.9
				c-0.2-0.2-0.6-0.4-0.9-0.4c-0.4,0-0.7,0.1-1,0.4c-0.3,0.2-0.4,0.6-0.5,0.9H-1866.7z"/>
			<path id="Trazado_40_3_" class="st1" d="M-1864.1-197.7v-4.2h-0.9v-1.3h0.9v-0.9c0-0.4,0.1-0.7,0.4-1c0.3-0.3,0.6-0.4,1-0.4h1.2
				v1.2h-0.8c-0.1,0-0.2,0-0.3,0.1c-0.1,0.1-0.1,0.2-0.1,0.3v0.7h1.2v1.3h-1.2v4.2H-1864.1z"/>
			<path id="Trazado_41_3_" class="st1" d="M-1859.9-198c-0.4-0.2-0.8-0.6-1-1c-0.2-0.4-0.4-1-0.4-1.5c0-0.5,0.1-1,0.4-1.5
				c0.2-0.4,0.6-0.8,1-1c0.4-0.2,0.9-0.4,1.4-0.4c0.5,0,1,0.1,1.4,0.4c0.4,0.2,0.8,0.6,1,1c0.2,0.5,0.4,1,0.4,1.5
				c0,0.5-0.1,1-0.4,1.5c-0.2,0.4-0.6,0.8-1,1c-0.4,0.2-0.9,0.4-1.4,0.4C-1858.9-197.6-1859.4-197.7-1859.9-198z M-1857.7-199.1
				c0.2-0.1,0.4-0.3,0.5-0.5c0.1-0.3,0.2-0.5,0.2-0.8c0-0.3-0.1-0.6-0.2-0.8c-0.1-0.2-0.3-0.4-0.5-0.5c-0.2-0.1-0.5-0.2-0.7-0.2
				c-0.3,0-0.5,0.1-0.7,0.2c-0.2,0.1-0.4,0.3-0.5,0.5c-0.1,0.3-0.2,0.5-0.2,0.8c0,0.3,0.1,0.6,0.2,0.8c0.1,0.2,0.3,0.4,0.5,0.5
				c0.2,0.1,0.5,0.2,0.7,0.2C-1858.2-198.9-1857.9-199-1857.7-199.1L-1857.7-199.1z M-1857.8-204h-1.2l1-1.6h1.4L-1857.8-204z"/>
			<path id="Trazado_42_3_" class="st1" d="M-1854.8-197.7v-5.5h1.2l0.1,0.5h0.1c0.2-0.2,0.4-0.3,0.6-0.4c0.7-0.3,1.4-0.3,2.1,0.1
				c0.3,0.2,0.6,0.5,0.8,0.8c0.2,0.4,0.3,0.8,0.3,1.2v3.3h-1.4v-3.1c0-0.3-0.1-0.6-0.3-0.9c-0.2-0.2-0.5-0.4-0.8-0.3
				c-0.6,0-1.2,0.5-1.2,1.1c0,0,0,0,0,0c0,0,0,0,0,0.1v3.1L-1854.8-197.7z"/>
			<path id="Trazado_43_3_" class="st1" d="M-1848.5-204.3c-0.3-0.3-0.3-0.8,0-1.1c0.1-0.1,0.3-0.2,0.5-0.2c0.2,0,0.4,0.1,0.6,0.2
				c0.2,0.1,0.2,0.3,0.2,0.5c0,0.2-0.1,0.4-0.2,0.5C-1847.7-204-1848.2-204-1848.5-204.3L-1848.5-204.3z M-1847.2-197.7h-1.4v-5.5
				h1.4L-1847.2-197.7z"/>
			<path id="Trazado_44_3_" class="st1" d="M-1845.1-198c-0.4-0.2-0.8-0.6-1-1c-0.2-0.4-0.4-1-0.4-1.5c0-0.5,0.1-1,0.4-1.5
				c0.2-0.4,0.6-0.8,1-1c0.4-0.2,0.9-0.4,1.4-0.4c0.5,0,0.9,0.1,1.3,0.3c0.4,0.2,0.7,0.5,0.9,0.8c0.2,0.3,0.4,0.7,0.4,1h-1.3
				c-0.1-0.2-0.2-0.5-0.4-0.6c-0.5-0.3-1.1-0.3-1.5,0c-0.2,0.1-0.4,0.3-0.5,0.5c-0.3,0.5-0.3,1.1,0,1.7c0.1,0.2,0.3,0.4,0.5,0.5
				c0.2,0.1,0.5,0.2,0.7,0.2c0.3,0,0.6-0.1,0.8-0.2c0.2-0.2,0.4-0.4,0.4-0.7h1.4c-0.1,0.4-0.2,0.8-0.4,1.1c-0.2,0.3-0.5,0.6-0.9,0.8
				c-0.4,0.2-0.8,0.3-1.3,0.3C-1844.1-197.6-1844.6-197.7-1845.1-198z"/>
			<path id="Trazado_45_3_" class="st1" d="M-1839.6-197.8c-0.3-0.1-0.5-0.3-0.7-0.6c-0.2-0.3-0.2-0.6-0.2-0.9c0-0.5,0.2-1,0.6-1.3
				c0.5-0.4,1.1-0.5,1.7-0.5h1.3v-0.1c0-0.5-0.4-1-0.9-1c0,0-0.1,0-0.1,0c-0.2,0-0.5,0.1-0.7,0.2c-0.2,0.1-0.3,0.3-0.3,0.4h-1.3
				c0-0.3,0.1-0.6,0.3-0.9c0.2-0.3,0.5-0.5,0.8-0.7c0.4-0.2,0.8-0.3,1.2-0.3c0.4,0,0.9,0.1,1.3,0.3c0.3,0.2,0.6,0.4,0.8,0.8
				c0.2,0.3,0.3,0.7,0.3,1.1v3.5h-1.2l-0.1-0.5h-0.1c-0.2,0.2-0.4,0.3-0.6,0.4c-0.3,0.1-0.6,0.2-1,0.2
				C-1838.9-197.6-1839.2-197.7-1839.6-197.8z M-1837.3-199.1c0.2-0.2,0.4-0.6,0.3-0.9v-0.2h-1.2c-0.3,0-0.5,0.1-0.8,0.2
				c-0.3,0.2-0.3,0.7-0.1,1c0,0,0,0,0.1,0.1c0.2,0.1,0.4,0.2,0.6,0.2C-1837.9-198.7-1837.6-198.8-1837.3-199.1L-1837.3-199.1z"/>
		</g>
		<path id="Trazado_46_3_" class="st1" d="M-1828.9-197.7h-1.5v-6.2h-2.2v-1.4h5.9v1.4h-2.2V-197.7z"/>
		<path id="Trazado_47_3_" class="st1" d="M-1825.7-198c-0.4-0.2-0.8-0.6-1-1c-0.2-0.4-0.4-1-0.4-1.5c0-0.5,0.1-1,0.4-1.5
			c0.2-0.4,0.6-0.8,1-1c0.4-0.2,0.9-0.4,1.4-0.4c0.5,0,1,0.1,1.4,0.4c0.4,0.2,0.8,0.6,1,1c0.2,0.4,0.4,0.9,0.4,1.4
			c0,0.2,0,0.4-0.1,0.5h-4.1c0,0.4,0.2,0.7,0.5,0.9c0.3,0.2,0.6,0.4,1,0.4c0.2,0,0.5-0.1,0.7-0.2c0.2-0.1,0.3-0.2,0.5-0.4h1.4
			c-0.2,0.6-0.7,1.2-1.3,1.5C-1823.9-197.5-1824.9-197.5-1825.7-198L-1825.7-198z M-1822.9-200.9c0-0.3-0.2-0.7-0.4-0.9
			c-0.2-0.2-0.6-0.4-0.9-0.4c-0.4,0-0.7,0.1-1,0.4c-0.3,0.2-0.4,0.6-0.5,0.9H-1822.9z"/>
		<path id="Trazado_48_3_" class="st1" d="M-1819.5-198c-0.4-0.2-0.8-0.6-1-1c-0.2-0.4-0.4-1-0.4-1.5c0-0.5,0.1-1,0.4-1.5
			c0.2-0.4,0.6-0.8,1-1c0.4-0.2,0.9-0.4,1.4-0.4c0.5,0,0.9,0.1,1.3,0.3c0.4,0.2,0.7,0.5,0.9,0.8c0.2,0.3,0.4,0.7,0.4,1h-1.4
			c-0.1-0.2-0.2-0.5-0.4-0.6c-0.2-0.2-0.5-0.3-0.8-0.2c-0.3,0-0.5,0.1-0.7,0.2c-0.2,0.1-0.4,0.3-0.5,0.5c-0.3,0.5-0.3,1.1,0,1.7
			c0.1,0.2,0.3,0.4,0.5,0.5c0.2,0.1,0.5,0.2,0.7,0.2c0.3,0,0.6-0.1,0.8-0.2c0.2-0.2,0.4-0.4,0.4-0.7h1.4c-0.1,0.4-0.2,0.8-0.4,1.1
			c-0.2,0.3-0.5,0.6-0.9,0.8c-0.4,0.2-0.8,0.3-1.3,0.3C-1818.6-197.6-1819.1-197.7-1819.5-198z"/>
		<path id="Trazado_49_3_" class="st1" d="M-1814.5-197.7v-7.6h1.4v2.6h0.1c0.2-0.2,0.4-0.3,0.6-0.4c0.3-0.1,0.6-0.2,0.9-0.2
			c0.4,0,0.8,0.1,1.1,0.3c0.3,0.2,0.6,0.5,0.8,0.8c0.2,0.4,0.3,0.8,0.3,1.2v3.3h-1.4v-3.1c0-0.3-0.1-0.6-0.3-0.9
			c-0.2-0.2-0.5-0.4-0.8-0.3c-0.6,0-1.2,0.5-1.2,1.1c0,0,0,0,0,0c0,0,0,0,0,0.1v3.1L-1814.5-197.7z"/>
	</g>
</g>
</svg>
